<svg xmlns="http://www.w3.org/2000/svg" xmlns:xlink="http://www.w3.org/1999/xlink"><defs><symbol fill="none" viewBox="0 0 12 12" id="icon-arrow"><path d="M11.063 6H.937m10.126 0l-4.5 4.5m4.5-4.5l-4.5-4.5" stroke="currentColor" stroke-width="1.8" stroke-linecap="round" stroke-linejoin="round" /></symbol><symbol fill="none" viewBox="0 0 12 12" id="icon-arrow-up"><path d="M9.6 4.574L6.636 7.537a.903.903 0 01-1.272 0L2.4 4.574" stroke="currentColor" stroke-width="1.5" stroke-miterlimit="10" stroke-linecap="round" stroke-linejoin="round" /></symbol><symbol fill="none" viewBox="0 0 11 8" id="icon-check-mark"><path fill-rule="evenodd" clip-rule="evenodd" d="M10.678.335c.43.446.43 1.17 0 1.616l-5.5 5.714a1.071 1.071 0 01-1.556 0l-3.3-3.428a1.175 1.175 0 010-1.617 1.071 1.071 0 011.556 0L4.4 5.24 9.122.336a1.071 1.071 0 011.556 0z" fill="currentColor" /></symbol><symbol fill="none" viewBox="0 0 24 24" id="icon-close"><path fill-rule="evenodd" clip-rule="evenodd" d="M13.414 12l4.293-4.293a.999.999 0 10-1.414-1.414L12 10.586 7.707 6.293a.999.999 0 10-1.414 1.414L10.586 12l-4.293 4.293a.999.999 0 101.414 1.414L12 13.414l4.293 4.293a.997.997 0 001.414 0 .999.999 0 000-1.414L13.414 12z" fill="currentColor" /></symbol><symbol fill="none" viewBox="0 0 14 12" id="icon-comment"><path d="M2.397 8.805l.018-.188-.112-.153a4.688 4.688 0 01-.927-2.78C1.376 2.883 3.98.5 7.315.5c3.334 0 5.938 2.383 5.938 5.184 0 2.802-2.604 5.184-5.938 5.184a6.606 6.606 0 01-2.444-.459l-.222-.088-.208.118c-.88.498-1.994.79-2.7.939.112-.209.208-.44.29-.686.178-.533.3-1.172.366-1.887z" stroke="currentColor" /></symbol><symbol fill="none" viewBox="0 0 24 24" id="icon-exclamation"><path fill-rule="evenodd" clip-rule="evenodd" d="M11 16a1 1 0 102 0 1 1 0 00-2 0zm0-3a1 1 0 002 0V8a1 1 0 00-2 0v5zm1-9c-4.411 0-8 3.589-8 8s3.589 8 8 8 8-3.589 8-8-3.589-8-8-8zm0 18C6.477 22 2 17.523 2 12S6.477 2 12 2c5.522 0 10 4.477 10 10s-4.478 10-10 10z" fill="currentColor" /></symbol><mask id="icon-exclamation_a" style="mask-type:luminance" maskUnits="userSpaceOnUse" x="2" y="2" width="20" height="20"><path fill-rule="evenodd" clip-rule="evenodd" d="M11 16a1 1 0 102 0 1 1 0 00-2 0zm0-3a1 1 0 002 0V8a1 1 0 00-2 0v5zm1-9c-4.411 0-8 3.589-8 8s3.589 8 8 8 8-3.589 8-8-3.589-8-8-8zm0 18C6.477 22 2 17.523 2 12S6.477 2 12 2c5.522 0 10 4.477 10 10s-4.478 10-10 10z" fill="currentColor" /></mask><symbol fill="none" viewBox="0 0 14 8" id="icon-eye"><path d="M13.772 3.51l-.828.562.828-.562zm0 .98l-.828-.562.828.562zM1.354 4.072A6.992 6.992 0 017.15 1v-2A8.992 8.992 0 00-.3 2.948l1.654 1.124zM7.15 1a6.992 6.992 0 015.795 3.072L14.6 2.948A8.992 8.992 0 007.149-1v2zm5.795 2.928A6.992 6.992 0 017.15 7v2c3.1 0 5.833-1.567 7.45-3.948l-1.655-1.124zM7.15 7a6.992 6.992 0 01-5.795-3.072L-.3 5.052A8.992 8.992 0 007.15 9V7zm5.795-2.928a.13.13 0 010-.144L14.6 5.052a1.871 1.871 0 000-2.104l-1.655 1.124zM-.3 2.948a1.87 1.87 0 000 2.104l1.654-1.124a.13.13 0 010 .144L-.3 2.948z" fill="currentColor" mask="url(#icon-eye_a)" /><circle cx="7.149" cy="4" r="3.5" stroke="currentColor" /><circle cx="7.149" cy="4" r="1" fill="currentColor" /></symbol><mask id="icon-eye_a" fill="currentColor"><path fill-rule="evenodd" clip-rule="evenodd" d="M.527 4.49a.871.871 0 010-.98A7.992 7.992 0 017.15 0a7.992 7.992 0 016.623 3.51.87.87 0 010 .98A7.992 7.992 0 017.149 8 7.992 7.992 0 01.527 4.49z" /></mask><symbol fill="none" viewBox="0 0 95 19" id="icon-footer-logo"><path fill-rule="evenodd" clip-rule="evenodd" d="M21.02 17.884h-4.91l-.695-.907c-.96.373-1.815.64-2.562.854-.748.16-1.548.267-2.456.267-2.99 0-5.339-.748-6.994-2.19C1.642 14.415.788 12.119.788 9.183c0-2.99.8-5.285 2.349-6.833C4.738.801 7.14 0 10.397 0c3.15 0 5.552.854 7.207 2.51 1.442 1.44 2.136 3.309 2.136 5.551 0 1.655-.054 2.883-.214 3.63-.214 1.175-.747 2.296-1.495 3.31l2.99 2.883zm-5.605-8.862c0-1.601-.32-2.883-1.014-3.897-.854-1.281-2.242-1.922-4.057-1.922-1.709 0-3.043.48-3.898 1.495-.854.96-1.28 2.402-1.28 4.27 0 2.083.48 3.631 1.494 4.592.908.854 2.242 1.281 4.004 1.281 1.601 0 2.776-.48 3.577-1.441.8-1.014 1.174-2.456 1.174-4.378zM39.546 12.386c0 1.548-.534 2.829-1.548 3.897-1.014 1.067-2.296 1.548-3.897 1.548H21.822v-3.15h10.197c.694 0 1.28-.16 1.708-.48.534-.374.8-.855.8-1.495 0-1.495-1.067-2.242-3.149-2.242h-5.125c-1.495 0-2.776-.48-3.897-1.388-1.121-.908-1.655-2.082-1.655-3.524 0-1.548.534-2.83 1.655-3.79C23.424.8 24.865.32 26.68.32h11.798v2.99H28.015c-.48 0-.961.213-1.388.587-.534.374-.748.854-.748 1.388 0 .587.214 1.121.694 1.495.48.427 1.015.587 1.655.587h5.66c1.76 0 3.149.48 4.163 1.388 1.015.908 1.495 2.136 1.495 3.63zM59.726 9.022c0 3.417-.961 5.82-2.83 7.314-1.548 1.175-3.79 1.762-6.673 1.762-3.256 0-5.659-.694-7.207-2.029-1.708-1.495-2.562-3.897-2.562-7.207 0-2.723.747-4.858 2.295-6.353C44.404.854 46.86.053 50.17.053c3.631 0 6.14.801 7.635 2.35 1.281 1.387 1.922 3.576 1.922 6.62zm-4.485-.107c0-1.708-.427-3.096-1.227-4.11-.908-1.121-2.296-1.709-4.058-1.709s-3.096.588-4.004 1.816c-.747 1.014-1.12 2.349-1.12 3.95 0 1.869.32 3.257.907 4.164.854 1.228 2.349 1.869 4.644 1.869 1.922 0 3.257-.588 4.004-1.815.587-.855.854-2.296.854-4.165zM77.29 10.517H65.223v7.26H60.9V7.047c0-.64.107-1.388.374-2.189.48-1.441 1.388-2.509 2.722-3.256C65.544.747 68.107.32 71.63.32h22.583v2.937H87.7v14.52h-4.058V3.257c-4.164 0-8.114-.054-12.278-.054-1.602 0-2.723.107-3.364.267-1.12.267-1.868.908-2.349 1.815-.373.694-.534 1.442-.534 2.296H77.29v2.936z" fill="currentColor" /></symbol><symbol fill="none" viewBox="0 0 14 12" id="icon-heart"><g clip-path="url(#icon-heart_clip0_26147_5441)"><path d="M6.387 10.57l-.01-.011-.012-.01C4.682 9.089 3.33 7.9 2.396 6.784 1.466 5.674 1 4.696 1 3.664 1 1.99 2.312.688 4.041.688A3.4 3.4 0 016.56 1.842l.378.44.379-.44A3.4 3.4 0 019.835.69c1.73 0 3.041 1.301 3.041 2.974 0 1.033-.466 2.012-1.396 3.121C10.545 7.9 9.194 9.09 7.512 10.55l-.012.01-.01.01-.552.541-.551-.54z" stroke="currentColor" /></g><defs></defs></symbol><clipPath id="icon-heart_clip0_26147_5441"><path fill="currentColor" transform="translate(.5 .19)" d="M0 0h12.876v11.621H0z" /></clipPath><symbol fill="none" viewBox="0 0 40 40" id="icon-instagram"><path d="M24.715 10.503c-1.23-.056-1.6-.066-4.715-.066-3.115 0-3.483.011-4.713.066-3.165.145-4.639 1.644-4.784 4.784-.055 1.23-.068 1.598-.068 4.713s.013 3.483.068 4.715c.145 3.132 1.612 4.638 4.784 4.783 1.228.055 1.598.069 4.713.069 3.117 0 3.485-.012 4.715-.069 3.165-.143 4.637-1.646 4.783-4.783.055-1.23.067-1.6.067-4.715 0-3.115-.012-3.483-.067-4.713-.146-3.139-1.621-4.639-4.783-4.784zM20 25.992a5.992 5.992 0 110-11.984 5.992 5.992 0 010 11.984zm6.228-10.819a1.4 1.4 0 110-2.8 1.4 1.4 0 010 2.8zM23.888 20a3.888 3.888 0 11-7.776 0 3.888 3.888 0 017.776 0zM20 0C8.955 0 0 8.955 0 20s8.955 20 20 20 20-8.955 20-20S31.045 0 20 0zm11.597 24.81c-.192 4.242-2.554 6.592-6.785 6.787-1.245.056-1.644.07-4.812.07s-3.565-.014-4.81-.07c-4.24-.195-6.592-2.549-6.787-6.787-.056-1.243-.07-1.642-.07-4.81 0-3.168.014-3.565.07-4.81.195-4.24 2.549-6.592 6.787-6.785 1.245-.058 1.642-.072 4.81-.072 3.168 0 3.567.014 4.812.072 4.241.195 6.595 2.553 6.785 6.785.056 1.245.07 1.642.07 4.81 0 3.168-.014 3.567-.07 4.81z" fill="currentColor" /></symbol><symbol fill="none" viewBox="0 0 25 24" id="icon-menu"><rect x="2.5" y="5" width="20" height="2" rx="1" fill="currentColor" /><rect x="2.5" y="11" width="20" height="2" rx="1" fill="currentColor" /><rect x="2.5" y="17" width="20" height="2" rx="1" fill="currentColor" /></symbol><symbol fill="none" viewBox="0 0 25 24" id="icon-profile-mobile"><path fill-rule="evenodd" clip-rule="evenodd" d="M12.46 13c-4.075 0-7.446 3.059-7.938 7.002-.068.548.386.998.938.998.552 0 .991-.451 1.083-.996A6.01 6.01 0 0112.46 15a6.01 6.01 0 015.918 5.004c.09.545.53.996 1.082.996s1.007-.45.938-.998C19.906 16.059 16.535 13 12.46 13z" fill="currentColor" /><path d="M12.46 11c2.206 0 4-1.794 4-4s-1.794-4-4-4-4 1.794-4 4 1.794 4 4 4" stroke="currentColor" stroke-width="2" /></symbol><symbol fill="none" viewBox="0 0 24 24" id="icon-question"><path fill-rule="evenodd" clip-rule="evenodd" d="M8.5 9.5C8.5 7.57 10.07 6 12 6s3.5 1.57 3.5 3.5c0 1.58-1.06 2.903-2.5 3.337V14a1 1 0 11-2 0v-2a1 1 0 011-1c.827 0 1.5-.673 1.5-1.5S12.827 8 12 8s-1.5.673-1.5 1.5a1 1 0 11-2 0zM11 17a1 1 0 112 0 1 1 0 11-2 0zm1 3c-4.411 0-8-3.589-8-8s3.589-8 8-8 8 3.589 8 8-3.589 8-8 8zm0-18C6.486 2 2 6.486 2 12s4.486 10 10 10 10-4.486 10-10S17.514 2 12 2z" fill="currentColor" /></symbol><symbol fill="none" viewBox="0 0 89 24" id="icon-review-company"><path d="M53.4 9.11V0h5.704v2.136h-3.322V9.11H53.4zM66.374 9.11V5.529H62.8V9.11H60.42V0H62.8v3.393h3.573V0h2.382v9.11h-2.382zM82.67 9.11V2.136h-2.82V0h8.022v2.136h-2.82V9.11H82.67zM76.34 9.11V3.895L72.515 9.11H70.51V0h2.381v5.152L76.652 0h2.069v9.11h-2.382zM39.611 9.11V3.707l-2.382 2.89-2.381-2.89V9.11h-2.445V0h2.382l2.444 3.141L39.611 0h2.382v9.11H39.61zM50.015 9.11l-.501-1.257h-3.698l-.502 1.257H42.87L46.568 0h2.194l3.697 9.11h-2.444zm-3.447-3.204h2.256l-1.19-2.827-1.066 2.827zM54.967 24v-6.974h-2.82V14.89h8.022v2.136h-2.82V24h-2.382zM48.26 24v-6.974h-3.07V24h-2.382v-9.11h7.897V24H48.26zM61.673 24v-9.11h6.644v2.136h-4.262v1.32h3.76v2.01h-3.76v1.507h4.262V24h-6.644zM76.026 24l-3.009-3.833h-.626V24h-2.382v-9.11h2.382v3.078h.752l2.319-3.078h2.758l-3.135 4.21 3.698 4.9h-2.757zM39.548 24l-.501-1.257h-3.76L34.784 24h-2.382l3.698-9.11h2.194L41.993 24h-2.445zm-3.447-3.205h2.257l-1.129-2.89-1.128 2.89zM86.555 24l-.502-1.257h-3.76L81.791 24h-2.38l3.697-9.11h2.194L88.999 24h-2.444zm-3.51-3.205h2.257l-1.129-2.89-1.128 2.89zM10.279 7.35v2.954H7.333v3.455h2.946v2.89h3.447v-2.89h2.883v-3.456h-2.883V7.351h-3.447z" fill="#008895" /><path d="M0 7.288c0-1.948.752-3.77 2.131-5.152A7.197 7.197 0 017.271 0h16.734v3.707H7.27c-.94 0-1.817.377-2.507 1.068-.69.691-1.065 1.57-1.065 2.513v6.22C3.51 15.14 2.319 16.46.689 16.712l-.626.126v-9.55H0zM0 24v-3.707h16.735c.94 0 1.817-.377 2.506-1.068.69-.691 1.066-1.57 1.066-2.513v-5.906c0-1.759 1.316-3.267 3.009-3.518l.626-.126v9.487c0 1.948-.752 3.77-2.13 5.152a7.197 7.197 0 01-5.14 2.136H0V24z" fill="#008895" /></symbol><symbol fill="none" viewBox="0 0 24 24" id="icon-search"><path d="M20 20l-4.904-4.904m0 0a6.5 6.5 0 10-9.192-9.192 6.5 6.5 0 009.192 9.192z" stroke="currentColor" stroke-width="1.8" stroke-linecap="round" stroke-linejoin="round" /></symbol><symbol fill="none" viewBox="0 0 24 24" id="icon-star"><path d="M21.927 8.718l-5.735-.832-2.563-5.171c-.46-.922-1.79-.934-2.253 0l-2.563 5.17-5.735.833c-1.028.148-1.44 1.41-.695 2.132l4.15 4.023-.982 5.683c-.177 1.027.91 1.797 1.821 1.316l5.13-2.683 5.13 2.683c.912.477 1.999-.289 1.822-1.316l-.981-5.683 4.149-4.023c.746-.722.333-1.984-.695-2.132zm-5.476 5.499l.93 5.406-4.878-2.55-4.88 2.55.93-5.406-3.948-3.828 5.456-.789 2.442-4.92 2.441 4.92 5.456.79-3.949 3.827z" fill="currentColor" /></symbol><symbol fill="none" viewBox="0 0 19 18" id="icon-star-active"><path d="M9.5.019l3.071 5.273 5.964 1.291-4.066 4.55.615 6.072L9.5 14.743l-5.584 2.46.615-6.07-4.066-4.55 5.964-1.292L9.5.019z" fill="#34AADD" /></symbol><symbol fill="none" viewBox="0 0 17 11" id="icon-thin-arrow"><path d="M16.347 5.987H.92a.62.62 0 010-1.24h15.428a.62.62 0 010 1.24z" fill="currentColor" /><path d="M11.206 10.135a.618.618 0 01-.39-1.103l4.545-3.665-4.544-3.665a.62.62 0 01.778-.965l5.142 4.148a.62.62 0 010 .965l-5.142 4.147a.617.617 0 01-.389.138z" fill="currentColor" /></symbol><symbol fill="none" viewBox="0 0 40 40" id="icon-youTube"><path d="M20 0C8.955 0 0 8.955 0 20s8.955 20 20 20 20-8.955 20-20S31.045 0 20 0zm7.402 28.153c-3.504.24-11.307.24-14.805 0-3.794-.26-4.235-2.116-4.264-8.153.029-6.048.475-7.893 4.264-8.153 3.498-.24 11.303-.24 14.805 0 3.795.26 4.235 2.116 4.265 8.153-.03 6.048-.475 7.893-4.265 8.153zM16.667 16.097l8.195 3.896-8.195 3.91v-7.806z" fill="currentColor" /></symbol></defs></svg>